<svg width="23" height="22" viewBox="0 0 23 22" fill="none" xmlns="http://www.w3.org/2000/svg">
<style>
  path {
    fill: #ffffff !important;
  }
  @media (prefers-color-scheme: light) {
    path {
      fill: #1D1121 !important;
    }
  }
</style>
<g clip-path="url(#clip0_128_2)">
<path d="M10.9077 0H11.3585L11.3685 0.00349147C11.6311 0.0920864 12.2066 0.0546578 12.5198 0.0972924C16.9947 0.706359 20.7954 4.04627 21.7812 8.4971C22.3702 11.1568 22.1845 14.8344 19.4296 16.2373C18.5391 16.6881 17.5871 16.8141 16.6398 16.4943C15.6658 16.1656 14.8621 15.4632 14.4053 14.5415C14.0712 13.8659 13.7488 12.9492 13.4475 12.2406C12.6377 10.3368 11.8813 8.20567 11.0206 6.33455C10.4925 7.56444 6.63583 16.5125 6.35564 16.6147C6.34371 16.6191 6.33127 16.6222 6.31907 16.6257C6.13396 16.6788 4.89196 16.7301 4.73099 16.6362C4.6639 16.597 4.62585 16.5315 4.60912 16.4555C4.57335 16.293 4.64286 16.0882 4.70133 15.9375C4.9746 15.2333 5.33374 14.5501 5.64176 13.8593C6.32566 12.306 7.01904 10.7569 7.72175 9.21206C8.37095 7.77447 9.02654 6.33254 9.72363 4.92192C10.038 4.28588 11.3632 4.09448 11.8923 4.52665C12.6256 5.12563 13.0603 6.39961 13.4402 7.27662C14.0522 8.69492 14.645 10.1215 15.2184 11.5559C15.3472 11.8786 15.6264 12.5066 15.718 12.8143C16.3437 14.916 18.1241 15.954 19.6512 13.8244C20.5271 12.6029 20.5154 10.5721 20.2287 9.11853C19.7567 6.73495 18.3599 4.63584 16.3443 3.28123C14.2464 1.8617 11.6682 1.34116 9.18454 1.83567C6.71958 2.31878 4.55148 3.77194 3.16656 5.86923C1.81913 7.89505 1.32916 10.3729 1.80406 12.7597C2.30461 15.2196 3.7621 17.3793 5.85521 18.7625C7.93268 20.1344 10.4703 20.6221 12.9077 20.1178C14.2206 19.8578 15.4577 19.3038 16.5263 18.4975C16.8776 18.2332 17.2144 17.906 17.559 17.6597C18.1376 17.5782 19.6972 17.4179 18.9429 18.6051C18.6561 18.9552 18.2414 19.3006 17.8933 19.5807C16.3194 20.8472 14.438 21.6919 12.4225 21.901C12.2342 21.9206 11.646 21.9555 11.4911 22H10.5266C10.2974 21.9281 9.34074 21.8723 9.02197 21.8189C7.47767 21.5447 6.01258 20.9336 4.73079 20.0289C2.55624 18.5157 0.997385 16.2709 0.33831 13.7035C0.128889 12.8618 0.137123 12.4071 0 11.6434V10.3071C0.0630582 10.0727 0.0890527 9.60117 0.131445 9.32332C0.782338 5.05757 4.021 1.25251 8.51659 0.287459C9.00555 0.182212 9.50082 0.108713 9.99928 0.0674206C10.2994 0.0438379 10.6218 0.0649066 10.9077 0Z" fill="white"/>
</g>
<defs>
<clipPath id="clip0_128_2">
<rect width="23" height="22" fill="white"/>
</clipPath>
</defs>
</svg>
